<svg width="78" height="76" viewBox="0 0 78 76" fill="none" xmlns="http://www.w3.org/2000/svg">
<path d="M74.715 22.0469H72.0275V19.6963C72.0266 18.8917 71.7066 18.1202 71.1377 17.5512C70.5687 16.9823 69.7973 16.6622 68.9927 16.6613H50.67C49.2667 14.9153 47.4896 13.5064 45.4696 12.5383C43.4496 11.5703 41.2381 11.0677 38.9981 11.0677C36.7581 11.0677 34.5466 11.5703 32.5266 12.5383C30.5066 13.5064 28.7295 14.9153 27.3262 16.6613H9.00312C8.19858 16.6624 7.42731 16.9825 6.85846 17.5515C6.28962 18.1204 5.96966 18.8918 5.96875 19.6963V22.0469H3.285C2.48029 22.0478 1.70881 22.3679 1.13983 22.937C0.570841 23.506 0.250827 24.2775 0.25 25.0822V70.6855C0.25091 71.4902 0.570965 72.2616 1.13995 72.8305C1.70893 73.3995 2.48036 73.7195 3.285 73.7204H34.2123L35.2803 75.311C35.3946 75.4812 35.5491 75.6208 35.7301 75.7172C35.9111 75.8137 36.113 75.8641 36.3181 75.8641H41.6819C41.8872 75.8641 42.0895 75.8135 42.2706 75.7168C42.4518 75.6201 42.6064 75.4802 42.7206 75.3096L43.7844 73.7204H74.715C75.5196 73.7195 76.2911 73.3995 76.8601 72.8305C77.429 72.2616 77.7491 71.4902 77.75 70.6855V25.0822C77.7492 24.2775 77.4292 23.506 76.8602 22.937C76.2912 22.3679 75.5197 22.0478 74.715 22.0469ZM8.46875 63.263H33.6125C34.4633 63.2641 35.2931 63.5271 35.9892 64.0164C36.6853 64.5056 37.2139 65.1973 37.5031 65.9974C37.1433 65.889 36.7695 65.834 36.3938 65.8341H9.00312C8.86181 65.8322 8.72681 65.7753 8.62688 65.6754C8.52695 65.5754 8.46999 65.4404 8.46813 65.2991L8.46875 63.263ZM38.9978 13.5672C42.3102 13.571 45.4859 14.8885 47.8282 17.2307C50.1704 19.5729 51.488 22.7486 51.4917 26.061C51.4917 29.9974 49.7245 32.7193 47.8536 35.6008C46.5622 37.5897 45.2333 39.6402 44.4373 42.1515H42.8748V33.8919C42.8747 33.7988 42.8643 33.706 42.8436 33.6152C43.8329 33.389 44.7042 32.8062 45.2912 31.9783C45.8781 31.1504 46.1395 30.1353 46.0255 29.1268C45.9115 28.1184 45.43 27.1873 44.673 26.5113C43.916 25.8353 42.9366 25.4619 41.9217 25.4622C41.5902 25.4622 41.2723 25.5939 41.0378 25.8284C40.8034 26.0628 40.6717 26.3807 40.6717 26.7122C40.6717 27.0438 40.8034 27.3617 41.0378 27.5961C41.2723 27.8305 41.5902 27.9622 41.9217 27.9622C42.137 27.9601 42.3505 28.0007 42.55 28.0816C42.7495 28.1625 42.931 28.2822 43.0839 28.4337C43.2369 28.5851 43.3583 28.7654 43.4412 28.9641C43.5241 29.1628 43.5667 29.3759 43.5667 29.5912C43.5667 29.8065 43.5241 30.0196 43.4412 30.2183C43.3583 30.417 43.2369 30.5973 43.0839 30.7488C42.931 30.9002 42.7495 31.0199 42.55 31.1008C42.3505 31.1817 42.137 31.2223 41.9217 31.2202H36.0795C35.8643 31.2223 35.6507 31.1817 35.4512 31.1008C35.2517 31.0199 35.0703 30.9002 34.9173 30.7488C34.7643 30.5973 34.6429 30.417 34.5601 30.2183C34.4772 30.0196 34.4345 29.8065 34.4345 29.5912C34.4345 29.3759 34.4772 29.1628 34.5601 28.9641C34.6429 28.7654 34.7643 28.5851 34.9173 28.4337C35.0703 28.2822 35.2517 28.1625 35.4512 28.0816C35.6507 28.0007 35.8643 27.9601 36.0795 27.9622C36.4111 27.9622 36.729 27.8305 36.9634 27.5961C37.1978 27.3617 37.3295 27.0438 37.3295 26.7122C37.3295 26.3807 37.1978 26.0628 36.9634 25.8284C36.729 25.5939 36.4111 25.4622 36.0795 25.4622C35.0647 25.4619 34.0852 25.8353 33.3282 26.5113C32.5713 27.1873 32.0898 28.1184 31.9758 29.1268C31.8617 30.1353 32.1231 31.1504 32.7101 31.9783C33.297 32.8062 34.1683 33.389 35.1577 33.6152C35.137 33.706 35.1265 33.7988 35.1264 33.8919V42.1515H33.5588C32.7637 39.6386 31.4338 37.5872 30.1416 35.5972C28.2708 32.7166 26.5039 29.9957 26.5039 26.061C26.5077 22.7486 27.8252 19.5729 30.1675 17.2307C32.5097 14.8885 35.6854 13.571 38.9978 13.5672ZM44.1303 47.0733C44.1303 47.1086 44.1284 47.1435 44.1277 47.1786H33.868C33.868 47.1435 33.8653 47.1086 33.8653 47.0733V44.6515H44.1309L44.1303 47.0733ZM43.4173 49.6786C42.9645 50.4482 42.3185 51.0862 41.5434 51.5295C40.7682 51.9727 39.8907 52.2059 38.9978 52.2059C38.1049 52.2059 37.2274 51.9727 36.4523 51.5295C35.6771 51.0862 35.0311 50.4482 34.5783 49.6786H43.4173ZM37.6125 33.7202H40.3875C40.3791 33.7771 40.3747 33.8345 40.3742 33.8921V42.1516H37.6258V33.8919C37.6253 33.8344 37.6209 33.7771 37.6125 33.7202ZM9.00312 19.1613H25.6887C24.5792 21.2918 24.0012 23.6589 24.0039 26.061C24.0039 30.7363 26.0581 33.8996 28.0448 36.9588C29.4189 39.0747 30.7183 41.0755 31.3653 43.558V47.0736C31.3653 49.098 32.1695 51.0394 33.6009 52.4709C35.0323 53.9023 36.9738 54.7065 38.9981 54.7065C41.0225 54.7065 42.9639 53.9023 44.3953 52.4709C45.8268 51.0394 46.6309 49.098 46.6309 47.0736V43.558C47.2794 41.0766 48.5778 39.0769 49.9511 36.9619C51.9378 33.9018 53.9923 30.7375 53.9923 26.0607C53.9951 23.6586 53.417 21.2915 52.3075 19.161H68.9925C69.1343 19.1612 69.2703 19.2176 69.3705 19.3179C69.4708 19.4182 69.5272 19.5542 69.5273 19.696V60.763H44.3838C42.8798 60.7622 41.4207 61.2748 40.2478 62.2161V58.1463C40.2478 57.8148 40.1161 57.4968 39.8817 57.2624C39.6473 57.028 39.3293 56.8963 38.9978 56.8963C38.6663 56.8963 38.3484 57.028 38.1139 57.2624C37.8795 57.4968 37.7478 57.8148 37.7478 58.1463V62.2152C36.5747 61.2743 35.1157 60.762 33.6119 60.763H8.46875V19.6963C8.47061 19.5551 8.52748 19.4202 8.62728 19.3203C8.72708 19.2204 8.86192 19.1633 9.00312 19.1613ZM69.5273 63.263V65.2996C69.5272 65.4414 69.4708 65.5773 69.3705 65.6776C69.2703 65.7779 69.1343 65.8344 68.9925 65.8346H41.6019C41.2261 65.8344 40.8523 65.8895 40.4925 65.9979C40.7818 65.1977 41.3104 64.5061 42.0064 64.0169C42.7025 63.5277 43.5323 63.2646 44.3831 63.2635L69.5273 63.263ZM75.25 70.6855C75.2481 70.8268 75.1912 70.9618 75.0912 71.0617C74.9913 71.1616 74.8563 71.2185 74.715 71.2204H43.117C42.9116 71.2204 42.7094 71.271 42.5282 71.3677C42.3471 71.4645 42.1925 71.6044 42.0783 71.775L41.0145 73.3641H36.9844L35.9164 71.7736C35.8021 71.6034 35.6476 71.4638 35.4666 71.3673C35.2856 71.2708 35.0837 71.2204 34.8786 71.2204H3.285C3.14317 71.2202 3.00719 71.1638 2.90689 71.0636C2.80659 70.9633 2.75017 70.8273 2.75 70.6855V25.0822C2.75017 24.9404 2.80658 24.8044 2.90688 24.7041C3.00718 24.6038 3.14316 24.5474 3.285 24.5472H5.96875V65.2996C5.9697 66.1041 6.28968 66.8754 6.85851 67.4444C7.42734 68.0133 8.19859 68.3335 9.00312 68.3346H36.3938C36.7528 68.335 37.0971 68.4778 37.351 68.7317C37.6049 68.9856 37.7477 69.3299 37.7481 69.6889C37.7481 70.0205 37.8798 70.3384 38.1142 70.5728C38.3487 70.8073 38.6666 70.9389 38.9981 70.9389C39.3296 70.9389 39.6476 70.8073 39.882 70.5728C40.1164 70.3384 40.2481 70.0205 40.2481 69.6889C40.2528 69.3312 40.397 68.9894 40.65 68.7364C40.903 68.4834 41.2447 68.3392 41.6025 68.3346H68.9931C69.7978 68.3336 70.5691 68.0136 71.1381 67.4446C71.707 66.8756 72.0271 66.1042 72.028 65.2996V24.5469H74.7155C74.8568 24.5489 74.9917 24.606 75.0915 24.706C75.1914 24.8059 75.2482 24.941 75.25 25.0822V70.6855ZM12.3772 31.8633C12.3772 31.5318 12.5089 31.2139 12.7433 30.9794C12.9777 30.745 13.2957 30.6133 13.6272 30.6133H21.5113C21.8428 30.6133 22.1607 30.745 22.3951 30.9794C22.6296 31.2139 22.7613 31.5318 22.7613 31.8633C22.7613 32.1949 22.6296 32.5128 22.3951 32.7472C22.1607 32.9816 21.8428 33.1133 21.5113 33.1133H13.6272C13.2957 33.1133 12.9777 32.9816 12.7433 32.7472C12.5089 32.5128 12.3772 32.1949 12.3772 31.8633ZM12.3772 37.2626C12.3772 36.931 12.5089 36.6131 12.7433 36.3787C12.9777 36.1442 13.2957 36.0126 13.6272 36.0126H24.1598C24.4914 36.0126 24.8093 36.1442 25.0437 36.3787C25.2781 36.6131 25.4098 36.931 25.4098 37.2626C25.4098 37.5941 25.2781 37.912 25.0437 38.1464C24.8093 38.3809 24.4914 38.5126 24.1598 38.5126H13.6272C13.2957 38.5126 12.9777 38.3809 12.7433 38.1464C12.5089 37.912 12.3772 37.5941 12.3772 37.2626ZM12.3772 42.6618C12.3772 42.3302 12.5089 42.0123 12.7433 41.7779C12.9777 41.5435 13.2957 41.4118 13.6272 41.4118H27.402C27.7336 41.4118 28.0515 41.5435 28.2859 41.7779C28.5203 42.0123 28.652 42.3302 28.652 42.6618C28.652 42.9933 28.5203 43.3112 28.2859 43.5456C28.0515 43.7801 27.7336 43.9118 27.402 43.9118H13.6272C13.2957 43.9118 12.9777 43.7801 12.7433 43.5456C12.5089 43.3112 12.3772 42.9933 12.3772 42.6618ZM12.3772 48.0566C12.3772 47.7251 12.5089 47.4071 12.7433 47.1727C12.9777 46.9383 13.2957 46.8066 13.6272 46.8066H27.9734C28.305 46.8066 28.6229 46.9383 28.8573 47.1727C29.0917 47.4071 29.2234 47.7251 29.2234 48.0566C29.2234 48.3881 29.0917 48.7061 28.8573 48.9405C28.6229 49.1749 28.305 49.3066 27.9734 49.3066H13.6272C13.2957 49.3066 12.9777 49.1749 12.7433 48.9405C12.5089 48.7061 12.3772 48.3881 12.3772 48.0566ZM12.3772 53.4558C12.3772 53.1243 12.5089 52.8064 12.7433 52.5719C12.9777 52.3375 13.2957 52.2058 13.6272 52.2058H29.9622C30.2937 52.2058 30.6117 52.3375 30.8461 52.5719C31.0805 52.8064 31.2122 53.1243 31.2122 53.4558C31.2122 53.7873 31.0805 54.1053 30.8461 54.3397C30.6117 54.5741 30.2937 54.7058 29.9622 54.7058H13.6272C13.2957 54.7058 12.9777 54.5741 12.7433 54.3397C12.5089 54.1053 12.3772 53.7873 12.3772 53.4558ZM55.2388 31.8633C55.2388 31.5318 55.3704 31.2139 55.6049 30.9794C55.8393 30.745 56.1572 30.6133 56.4888 30.6133H64.3683C64.6998 30.6133 65.0177 30.745 65.2522 30.9794C65.4866 31.2139 65.6183 31.5318 65.6183 31.8633C65.6183 32.1949 65.4866 32.5128 65.2522 32.7472C65.0177 32.9816 64.6998 33.1133 64.3683 33.1133H56.4888C56.1572 33.1133 55.8393 32.9816 55.6049 32.7472C55.3704 32.5128 55.2388 32.1949 55.2388 31.8633ZM52.5902 37.2626C52.5902 36.931 52.7219 36.6131 52.9563 36.3787C53.1907 36.1442 53.5086 36.0126 53.8402 36.0126H64.3683C64.6998 36.0126 65.0177 36.1442 65.2522 36.3787C65.4866 36.6131 65.6183 36.931 65.6183 37.2626C65.6183 37.5941 65.4866 37.912 65.2522 38.1464C65.0177 38.3809 64.6998 38.5126 64.3683 38.5126H53.8402C53.5086 38.5126 53.1907 38.3809 52.9563 38.1464C52.7219 37.912 52.5902 37.5941 52.5902 37.2626ZM49.348 42.6618C49.348 42.3302 49.4797 42.0123 49.7141 41.7779C49.9485 41.5435 50.2664 41.4118 50.598 41.4118H64.3683C64.6998 41.4118 65.0177 41.5435 65.2522 41.7779C65.4866 42.0123 65.6183 42.3302 65.6183 42.6618C65.6183 42.9933 65.4866 43.3112 65.2522 43.5456C65.0177 43.7801 64.6998 43.9118 64.3683 43.9118H50.598C50.2664 43.9118 49.9485 43.7801 49.7141 43.5456C49.4797 43.3112 49.348 42.9933 49.348 42.6618ZM48.7766 48.0566C48.7766 47.7251 48.9083 47.4071 49.1427 47.1727C49.3771 46.9383 49.695 46.8066 50.0266 46.8066H64.3683C64.6998 46.8066 65.0177 46.9383 65.2522 47.1727C65.4866 47.4071 65.6183 47.7251 65.6183 48.0566C65.6183 48.3881 65.4866 48.7061 65.2522 48.9405C65.0177 49.1749 64.6998 49.3066 64.3683 49.3066H50.0266C49.695 49.3066 49.3771 49.1749 49.1427 48.9405C48.9083 48.7061 48.7766 48.3881 48.7766 48.0566ZM46.7834 53.4558C46.7834 53.1243 46.9151 52.8064 47.1496 52.5719C47.384 52.3375 47.7019 52.2058 48.0334 52.2058H64.3683C64.6998 52.2058 65.0177 52.3375 65.2522 52.5719C65.4866 52.8064 65.6183 53.1243 65.6183 53.4558C65.6183 53.7873 65.4866 54.1053 65.2522 54.3397C65.0177 54.5741 64.6998 54.7058 64.3683 54.7058H48.0334C47.7019 54.7058 47.384 54.5741 47.1496 54.3397C46.9151 54.1053 46.7834 53.7873 46.7834 53.4558ZM14.9506 24.1875C14.9506 23.856 15.0823 23.5381 15.3167 23.3037C15.5512 23.0692 15.8691 22.9375 16.2006 22.9375H19.3764C19.7079 22.9375 20.0259 23.0692 20.2603 23.3037C20.4947 23.5381 20.6264 23.856 20.6264 24.1875C20.6264 24.5191 20.4947 24.837 20.2603 25.0714C20.0259 25.3059 19.7079 25.4375 19.3764 25.4375H16.2006C15.8691 25.4375 15.5512 25.3059 15.3167 25.0714C15.0823 24.837 14.9506 24.5191 14.9506 24.1875ZM51.9709 12.4688C51.7238 12.4688 51.4822 12.3955 51.2767 12.2582C51.0712 12.1209 50.911 11.9258 50.8163 11.6975C50.7217 11.4692 50.6968 11.218 50.7449 10.9755C50.793 10.7331 50.9119 10.5104 51.0866 10.3355L54.2356 7.18192C54.4704 6.94966 54.7874 6.81971 55.1177 6.82046C55.4479 6.82121 55.7644 6.95259 55.9981 7.18591C56.2317 7.41923 56.3636 7.73554 56.3648 8.06575C56.3661 8.39596 56.2366 8.71326 56.0047 8.94833L52.8555 12.1021C52.7395 12.2185 52.6016 12.3108 52.4498 12.3738C52.298 12.4367 52.1353 12.469 51.9709 12.4688ZM38.9978 7.59661C38.6663 7.59661 38.3484 7.46492 38.1139 7.23049C37.8795 6.99607 37.7478 6.67813 37.7478 6.34661V1.38599C37.7478 1.05447 37.8795 0.736523 38.1139 0.502103C38.3484 0.267682 38.6663 0.135986 38.9978 0.135986C39.3293 0.135986 39.6473 0.267682 39.8817 0.502103C40.1161 0.736523 40.2478 1.05447 40.2478 1.38599V6.34661C40.2478 6.67813 40.1161 6.99607 39.8817 7.23049C39.6473 7.46492 39.3293 7.59661 38.9978 7.59661ZM25.1452 12.1027L21.9916 8.94896C21.7615 8.71366 21.6335 8.39712 21.6353 8.06802C21.6371 7.73893 21.7687 7.42384 22.0014 7.19114C22.2341 6.95843 22.5492 6.82688 22.8783 6.82504C23.2074 6.8232 23.5239 6.95121 23.7592 7.1813L26.913 10.3349C27.1474 10.5693 27.2791 10.8873 27.2791 11.2188C27.2791 11.5503 27.1474 11.8683 26.913 12.1027C26.6785 12.3371 26.3606 12.4688 26.0291 12.4688C25.6975 12.4688 25.3796 12.3371 25.1452 12.1027ZM57.3736 24.1875C57.3736 23.856 57.5053 23.5381 57.7397 23.3037C57.9741 23.0692 58.2921 22.9375 58.6236 22.9375H61.7995C62.1311 22.9375 62.449 23.0692 62.6834 23.3037C62.9178 23.5381 63.0495 23.856 63.0495 24.1875C63.0495 24.5191 62.9178 24.837 62.6834 25.0714C62.449 25.3059 62.1311 25.4375 61.7995 25.4375H58.6236C58.2921 25.4375 57.9741 25.3059 57.7397 25.0714C57.5053 24.837 57.3736 24.5191 57.3736 24.1875Z" fill="#50AB09"/>
</svg>
