<svg width="455" height="436" viewBox="0 0 455 436" fill="none" xmlns="http://www.w3.org/2000/svg">
<path d="M229 2C348.19 2 445 98.9762 445 218C445 337.024 348.024 434 229 434" stroke="url(#paint0_linear_1216_42)" stroke-width="3.31634" stroke-miterlimit="10"/>
<path d="M229 2C109.81 2 13 98.9762 13 218C13 337.024 109.976 434 229 434" stroke="url(#paint1_linear_1216_42)" stroke-width="3.31634" stroke-miterlimit="10"/>
<g opacity="0.3">
<path d="M352.054 395.144C348.67 390.824 349.593 384.5 353.9 381.106C358.208 377.713 364.515 378.484 367.899 382.957C371.284 387.277 370.515 393.601 366.053 396.995C364.207 398.383 362.054 399 359.9 399C356.977 399 353.9 397.612 352.054 395.144Z" fill="url(#paint2_linear_1216_42)"/>
<path d="M352.054 395.144C348.67 390.824 349.593 384.5 353.9 381.106C358.208 377.713 364.515 378.484 367.899 382.957C371.284 387.277 370.515 393.601 366.053 396.995C364.207 398.383 362.054 399 359.9 399C356.977 399 353.9 397.612 352.054 395.144Z" fill="url(#paint3_linear_1216_42)"/>
</g>
<g opacity="0.3">
<path d="M418.512 321.922C413.592 319.457 411.593 313.45 414.053 308.521C416.513 303.593 422.511 301.59 427.431 304.055C432.352 306.519 434.351 312.526 432.045 317.455C430.353 320.998 426.816 323 423.126 323C421.434 323 419.896 322.538 418.512 321.922Z" fill="url(#paint4_linear_1216_42)"/>
<path d="M418.512 321.922C413.592 319.457 411.593 313.45 414.053 308.521C416.513 303.593 422.511 301.59 427.431 304.055C432.352 306.519 434.351 312.526 432.045 317.455C430.353 320.998 426.816 323 423.126 323C421.434 323 419.896 322.538 418.512 321.922Z" fill="url(#paint5_linear_1216_42)"/>
</g>
<g opacity="0.3">
<path d="M435 217C435 211.462 439.462 207 445 207C450.538 207 455 211.462 455 217C455 222.538 450.538 227 445 227C439.462 227 435 222.538 435 217Z" fill="url(#paint6_linear_1216_42)"/>
<path d="M435 217C435 211.462 439.462 207 445 207C450.538 207 455 211.462 455 217C455 222.538 450.538 227 445 227C439.462 227 435 222.538 435 217Z" fill="url(#paint7_linear_1216_42)"/>
</g>
<g opacity="0.3">
<path d="M413.056 126.455C410.589 121.526 412.593 115.519 417.528 113.055C422.463 110.59 428.477 112.593 430.944 117.521C433.411 122.45 431.407 128.457 426.472 130.922C425.084 131.692 423.542 132 422 132C418.299 132 414.752 129.998 413.056 126.455Z" fill="url(#paint8_linear_1216_42)"/>
<path d="M413.056 126.455C410.589 121.526 412.593 115.519 417.528 113.055C422.463 110.59 428.477 112.593 430.944 117.521C433.411 122.45 431.407 128.457 426.472 130.922C425.084 131.692 423.542 132 422 132C418.299 132 414.752 129.998 413.056 126.455Z" fill="url(#paint9_linear_1216_42)"/>
</g>
<g opacity="0.3">
<path d="M353.909 53.99C349.592 50.5884 348.667 44.2492 352.059 39.92C355.451 35.5908 361.773 34.6631 366.091 38.0646C370.408 41.4661 371.333 47.8054 367.941 52.1346C365.936 54.7631 363.007 56 359.923 56C357.764 56 355.605 55.3815 353.909 53.99Z" fill="url(#paint10_linear_1216_42)"/>
<path d="M353.909 53.99C349.592 50.5884 348.667 44.2492 352.059 39.92C355.451 35.5908 361.773 34.6631 366.091 38.0646C370.408 41.4661 371.333 47.8054 367.941 52.1346C365.936 54.7631 363.007 56 359.923 56C357.764 56 355.605 55.3815 353.909 53.99Z" fill="url(#paint11_linear_1216_42)"/>
</g>
<g opacity="0.3">
<path d="M104.946 395.144C108.33 390.824 107.407 384.5 103.1 381.106C98.7923 377.713 92.485 378.484 89.1006 382.957C85.7162 387.277 86.4854 393.601 90.9466 396.995C92.7927 398.383 94.9464 399 97.1001 399C100.023 399 102.946 397.612 104.946 395.144Z" fill="url(#paint12_linear_1216_42)"/>
<path d="M104.946 395.144C108.33 390.824 107.407 384.5 103.1 381.106C98.7923 377.713 92.485 378.484 89.1006 382.957C85.7162 387.277 86.4854 393.601 90.9466 396.995C92.7927 398.383 94.9464 399 97.1001 399C100.023 399 102.946 397.612 104.946 395.144Z" fill="url(#paint13_linear_1216_42)"/>
</g>
<g opacity="0.3">
<path d="M38.4876 321.922C43.4084 319.457 45.4075 313.45 42.9471 308.521C40.4866 303.593 34.4894 301.59 29.5685 304.055C24.6477 306.519 22.6486 312.526 24.9553 317.455C26.6468 320.998 30.1836 323 33.8743 323C35.5658 323 37.1036 322.538 38.4876 321.922Z" fill="url(#paint14_linear_1216_42)"/>
<path d="M38.4876 321.922C43.4084 319.457 45.4075 313.45 42.9471 308.521C40.4866 303.593 34.4894 301.59 29.5685 304.055C24.6477 306.519 22.6486 312.526 24.9553 317.455C26.6468 320.998 30.1836 323 33.8743 323C35.5658 323 37.1036 322.538 38.4876 321.922Z" fill="url(#paint15_linear_1216_42)"/>
</g>
<g opacity="0.3">
<path d="M20 217C20 211.462 15.5385 207 10 207C4.46154 207 0 211.462 0 217C0 222.538 4.46154 227 10 227C15.5385 227 20 222.538 20 217Z" fill="url(#paint16_linear_1216_42)"/>
<path d="M20 217C20 211.462 15.5385 207 10 207C4.46154 207 0 211.462 0 217C0 222.538 4.46154 227 10 227C15.5385 227 20 222.538 20 217Z" fill="url(#paint17_linear_1216_42)"/>
</g>
<g opacity="0.3">
<path d="M42.9441 126.455C45.4114 121.526 43.4067 115.519 38.4721 113.055C33.5374 110.59 27.5232 112.593 25.0559 117.521C22.5886 122.45 24.5933 128.457 29.528 130.922C30.9159 131.692 32.4579 132 34 132C37.701 132 41.2478 129.998 42.9441 126.455Z" fill="url(#paint18_linear_1216_42)"/>
<path d="M42.9441 126.455C45.4114 121.526 43.4067 115.519 38.4721 113.055C33.5374 110.59 27.5232 112.593 25.0559 117.521C22.5886 122.45 24.5933 128.457 29.528 130.922C30.9159 131.692 32.4579 132 34 132C37.701 132 41.2478 129.998 42.9441 126.455Z" fill="url(#paint19_linear_1216_42)"/>
</g>
<g opacity="0.3">
<path d="M103.091 53.99C107.408 50.5884 108.333 44.2492 104.941 39.92C101.549 35.5908 95.2268 34.6631 90.9093 38.0646C86.5919 41.4661 85.6667 47.8054 89.059 52.1346C91.0635 54.7631 93.9932 56 97.0771 56C99.2358 56 101.395 55.3815 103.091 53.99Z" fill="url(#paint20_linear_1216_42)"/>
<path d="M103.091 53.99C107.408 50.5884 108.333 44.2492 104.941 39.92C101.549 35.5908 95.2268 34.6631 90.9093 38.0646C86.5919 41.4661 85.6667 47.8054 89.059 52.1346C91.0635 54.7631 93.9932 56 97.0771 56C99.2358 56 101.395 55.3815 103.091 53.99Z" fill="url(#paint21_linear_1216_42)"/>
</g>
<path d="M414 217.835C414 319.858 331.098 403 229 403V336.254C294.197 336.254 347.149 283.256 347.149 218.001C347.149 152.746 294.197 99.7466 229 99.7466V33.001C331.098 32.6697 414 115.812 414 217.835Z" fill="#FFCD01"/>
<path d="M45 217.835C45 319.858 127.902 403 230 403V336.254C164.803 336.254 111.851 283.256 111.851 218.001C111.851 152.746 164.803 99.7466 230 99.7466V33.001C127.902 32.6697 45 115.812 45 217.835Z" fill="#FFCD01"/>
<path d="M235.752 150.365C202.494 161.557 174.439 184.371 163 218.365C174.308 251.973 202.1 275.042 235.752 286.365C265.677 263.346 281.995 244.86 294 218.365C276.769 206.823 269.531 200.881 255.561 183.02C236.843 191.693 220.551 201.8 206.118 217.997C211.298 225.357 219.897 232.228 226.849 237.873C236.981 230.444 244.708 223.205 249.714 216.994C252.852 220.82 256.391 223.366 259.761 225.494C251.055 240.271 241.285 248.385 229.22 256.134C211.098 246.562 196.531 229.994 189.451 215.986C202.721 194.157 223.535 179.418 247.185 171.204C243.353 164.509 238.331 158.274 235.752 150.365Z" fill="#FFE30B"/>
<defs>
<linearGradient id="paint0_linear_1216_42" x1="229.076" y1="217.999" x2="446.781" y2="217.999" gradientUnits="userSpaceOnUse">
<stop stop-color="white"/>
<stop offset="1" stop-color="#F5F5F5"/>
</linearGradient>
<linearGradient id="paint1_linear_1216_42" x1="229.075" y1="218" x2="11.3703" y2="218" gradientUnits="userSpaceOnUse">
<stop stop-color="white"/>
<stop offset="1" stop-color="#F5F5F5"/>
</linearGradient>
<linearGradient id="paint2_linear_1216_42" x1="352.855" y1="381.894" x2="367.963" y2="396.961" gradientUnits="userSpaceOnUse">
<stop stop-color="#E991FC"/>
<stop offset="1" stop-color="#7533D8"/>
</linearGradient>
<linearGradient id="paint3_linear_1216_42" x1="347.897" y1="378.322" x2="371.496" y2="401.142" gradientUnits="userSpaceOnUse">
<stop stop-color="#FFDF00"/>
<stop offset="1" stop-color="#FFB800"/>
</linearGradient>
<linearGradient id="paint4_linear_1216_42" x1="415.842" y1="305.836" x2="430.932" y2="320.901" gradientUnits="userSpaceOnUse">
<stop stop-color="#E991FC"/>
<stop offset="1" stop-color="#7533D8"/>
</linearGradient>
<linearGradient id="paint5_linear_1216_42" x1="410.897" y1="302.322" x2="434.496" y2="325.142" gradientUnits="userSpaceOnUse">
<stop stop-color="#FFDF00"/>
<stop offset="1" stop-color="#FFB800"/>
</linearGradient>
<linearGradient id="paint6_linear_1216_42" x1="437.889" y1="209.968" x2="452.955" y2="225.034" gradientUnits="userSpaceOnUse">
<stop stop-color="#E991FC"/>
<stop offset="1" stop-color="#7533D8"/>
</linearGradient>
<linearGradient id="paint7_linear_1216_42" x1="432.897" y1="206.322" x2="456.496" y2="229.142" gradientUnits="userSpaceOnUse">
<stop stop-color="#FFDF00"/>
<stop offset="1" stop-color="#FFB800"/>
</linearGradient>
<linearGradient id="paint8_linear_1216_42" x1="414.91" y1="114.932" x2="429.995" y2="130.034" gradientUnits="userSpaceOnUse">
<stop stop-color="#E991FC"/>
<stop offset="1" stop-color="#7533D8"/>
</linearGradient>
<linearGradient id="paint9_linear_1216_42" x1="409.897" y1="111.322" x2="433.496" y2="134.142" gradientUnits="userSpaceOnUse">
<stop stop-color="#FFDF00"/>
<stop offset="1" stop-color="#FFB800"/>
</linearGradient>
<linearGradient id="paint10_linear_1216_42" x1="352.849" y1="38.8514" x2="367.999" y2="53.9598" gradientUnits="userSpaceOnUse">
<stop stop-color="#E991FC"/>
<stop offset="1" stop-color="#7533D8"/>
</linearGradient>
<linearGradient id="paint11_linear_1216_42" x1="347.897" y1="35.322" x2="371.496" y2="58.1419" gradientUnits="userSpaceOnUse">
<stop stop-color="#FFDF00"/>
<stop offset="1" stop-color="#FFB800"/>
</linearGradient>
<linearGradient id="paint12_linear_1216_42" x1="89.987" y1="381.892" x2="105.1" y2="396.964" gradientUnits="userSpaceOnUse">
<stop stop-color="#FFDB65"/>
<stop offset="1" stop-color="#FF8C33"/>
</linearGradient>
<linearGradient id="paint13_linear_1216_42" x1="84.8971" y1="378.322" x2="108.496" y2="401.142" gradientUnits="userSpaceOnUse">
<stop stop-color="#FFDF00"/>
<stop offset="1" stop-color="#FFB800"/>
</linearGradient>
<linearGradient id="paint14_linear_1216_42" x1="27.0032" y1="305.836" x2="42.0942" y2="320.902" gradientUnits="userSpaceOnUse">
<stop stop-color="#FFDB65"/>
<stop offset="1" stop-color="#FF8C33"/>
</linearGradient>
<linearGradient id="paint15_linear_1216_42" x1="21.8971" y1="302.322" x2="45.4959" y2="325.142" gradientUnits="userSpaceOnUse">
<stop stop-color="#FFDF00"/>
<stop offset="1" stop-color="#FFB800"/>
</linearGradient>
<linearGradient id="paint16_linear_1216_42" x1="2.95523" y1="209.967" x2="18.0229" y2="225.035" gradientUnits="userSpaceOnUse">
<stop stop-color="#FFDB65"/>
<stop offset="1" stop-color="#FF8C33"/>
</linearGradient>
<linearGradient id="paint17_linear_1216_42" x1="-2.10292" y1="206.322" x2="21.4959" y2="229.142" gradientUnits="userSpaceOnUse">
<stop stop-color="#FFDF00"/>
<stop offset="1" stop-color="#FFB800"/>
</linearGradient>
<linearGradient id="paint18_linear_1216_42" x1="26.899" y1="114.93" x2="41.9876" y2="130.037" gradientUnits="userSpaceOnUse">
<stop stop-color="#FFDB65"/>
<stop offset="1" stop-color="#FF8C33"/>
</linearGradient>
<linearGradient id="paint19_linear_1216_42" x1="21.8971" y1="111.322" x2="45.4959" y2="134.142" gradientUnits="userSpaceOnUse">
<stop stop-color="#FFDF00"/>
<stop offset="1" stop-color="#FFB800"/>
</linearGradient>
<linearGradient id="paint20_linear_1216_42" x1="89.959" y1="38.8552" x2="105.102" y2="53.9569" gradientUnits="userSpaceOnUse">
<stop stop-color="#FFDB65"/>
<stop offset="1" stop-color="#FF8C33"/>
</linearGradient>
<linearGradient id="paint21_linear_1216_42" x1="84.8971" y1="35.322" x2="108.496" y2="58.1419" gradientUnits="userSpaceOnUse">
<stop stop-color="#FFDF00"/>
<stop offset="1" stop-color="#FFB800"/>
</linearGradient>
</defs>
</svg>
